<svg width="24" height="24" viewBox="0 0 24 24" fill="none" xmlns="http://www.w3.org/2000/svg">
<path fill-rule="evenodd" clip-rule="evenodd" d="M10.5467 8.93335C10.2942 8.93335 10 9.16915 10 9.56002C10 9.89597 10.071 9.98464 10.0782 9.99368C10.0781 9.99357 10.0783 9.99383 10.0782 9.99368C10.0936 10.0132 10.1518 10.0758 10.3989 10.1635L13.6068 11.2863C13.9923 11.4257 14.462 11.6511 14.8162 12.1042C15.1799 12.5695 15.32 13.1413 15.32 13.7733C15.32 15.1692 14.2275 16.4 12.7733 16.4H10.7733C9.20071 16.4 8 15.0641 8 13.5333C8 12.9811 8.44772 12.5333 9 12.5333C9.55228 12.5333 10 12.9811 10 13.5333C10 14.0559 10.3993 14.4 10.7733 14.4H12.7733C13.0258 14.4 13.32 14.1642 13.32 13.7733C13.32 13.4368 13.2487 13.3464 13.2408 13.3363C13.225 13.3161 13.1684 13.255 12.931 13.1687L9.73282 12.0493C9.34128 11.9106 8.86609 11.6864 8.50817 11.2326C8.14 10.7659 8 10.1918 8 9.56002C8 8.16421 9.09252 6.93335 10.5467 6.93335H12.5602C14.1188 6.95441 15.3333 8.25169 15.3333 9.80002C15.3333 10.3523 14.8856 10.8 14.3333 10.8C13.781 10.8 13.3333 10.3523 13.3333 9.80002C13.3333 9.29718 12.9511 8.94192 12.5385 8.93335H10.5467Z" fill="white"/>
<path fill-rule="evenodd" clip-rule="evenodd" d="M11.6667 14.4667C12.219 14.4667 12.6667 14.9144 12.6667 15.4667V16.4533C12.6667 17.0056 12.219 17.4533 11.6667 17.4533C11.1145 17.4533 10.6667 17.0056 10.6667 16.4533V15.4667C10.6667 14.9144 11.1145 14.4667 11.6667 14.4667Z" fill="white"/>
<path fill-rule="evenodd" clip-rule="evenodd" d="M11.6667 5.88C12.219 5.88 12.6667 6.32772 12.6667 6.88001V7.92001C12.6667 8.47229 12.219 8.92001 11.6667 8.92001C11.1145 8.92001 10.6667 8.47229 10.6667 7.92001V6.88001C10.6667 6.32772 11.1145 5.88 11.6667 5.88Z" fill="white"/>
<path fill-rule="evenodd" clip-rule="evenodd" d="M11.6533 2C6.32194 2 2 6.32194 2 11.6533C2 16.9847 6.32194 21.3067 11.6533 21.3067C16.9847 21.3067 21.3067 16.9847 21.3067 11.6533C21.3067 6.32194 16.9847 2 11.6533 2ZM0 11.6533C0 5.21737 5.21737 0 11.6533 0C18.0893 0 23.3067 5.21737 23.3067 11.6533C23.3067 18.0893 18.0893 23.3067 11.6533 23.3067C5.21737 23.3067 0 18.0893 0 11.6533Z" fill="white"/>
</svg>
