<svg width="295" height="41" viewBox="0 0 295 41" fill="none" xmlns="http://www.w3.org/2000/svg">
<g clip-path="url(#clip0_85_332)">
<path d="M28.1524 0.328247V5.27888H17.0224V23.3036H11.13V5.27888H0V0.328247H28.1524Z" fill="#3AAE2A"/>
<path d="M48.0938 0.328247C50.7126 0.328247 52.8404 1.09409 54.4499 2.65313C56.0594 4.18482 56.8778 6.23619 56.8778 8.77988C56.8778 11.3236 56.0594 13.3476 54.4499 14.8793C52.8404 16.411 50.7126 17.1768 48.0938 17.1768H35.9817V23.3036H30.0894V0.328247H48.0938ZM46.457 12.1988C46.9481 12.1988 47.3572 12.1988 47.63 12.1988C47.9028 12.1988 48.2847 12.1168 48.7758 12.0074C49.2668 11.898 49.6214 11.7065 49.8942 11.4877C50.167 11.2689 50.4125 10.9133 50.6308 10.4483C50.849 9.98335 50.9581 9.43632 50.9581 8.77988C50.9581 8.12344 50.849 7.54906 50.6308 7.08408C50.4125 6.61911 50.167 6.26354 49.8942 6.04472C49.6214 5.82591 49.2395 5.63445 48.7758 5.52504C48.312 5.41564 47.9028 5.33358 47.63 5.33358C47.3572 5.33358 46.9481 5.33358 46.457 5.33358H35.9817V12.2535H46.457V12.1988Z" fill="#3AAE2A"/>
<path d="M99.079 23.3036L96.6238 18.4076H82.9022L80.4471 23.3036H73.9546L85.7939 0.328247H93.7595L105.599 23.3036H99.079ZM85.1119 14.004H94.4415L89.8039 4.67715L85.1119 14.004Z" fill="white"/>
<path d="M133.587 11.7886C133.587 15.8092 132.442 18.7906 130.123 20.7325C127.804 22.6745 124.176 23.6318 119.184 23.6318C114.192 23.6318 110.536 22.6745 108.245 20.7325C105.953 18.8179 104.78 15.8092 104.78 11.7612V0.328247H110.673V11.7886C110.673 12.527 110.727 13.1835 110.809 13.7579C110.918 14.3323 111.136 14.934 111.464 15.5904C111.791 16.2469 112.282 16.7665 112.882 17.2042C113.482 17.6418 114.328 17.9974 115.392 18.2709C116.456 18.5444 117.738 18.7085 119.184 18.7085C120.63 18.7085 121.912 18.5717 122.976 18.2709C124.04 17.9974 124.885 17.6418 125.458 17.2042C126.058 16.7665 126.522 16.2469 126.877 15.5904C127.231 14.934 127.449 14.3323 127.559 13.7579C127.668 13.1835 127.695 12.527 127.695 11.7886V0.328247H133.587V11.7886Z" fill="white"/>
<path d="M135.524 11.7885C135.524 7.9046 136.697 4.95063 139.016 2.98132C141.335 1.01201 144.99 0 149.928 0C158.876 0 163.65 3.36424 164.222 10.1201H158.221C157.948 8.31488 157.13 7.002 155.766 6.18145C154.402 5.36091 152.438 4.97799 149.901 4.97799C146.927 4.97799 144.772 5.52502 143.408 6.61908C142.044 7.71314 141.39 9.43629 141.39 11.8159C141.39 14.1955 142.071 15.946 143.408 17.04C144.745 18.1341 146.927 18.7085 149.901 18.7085C152.41 18.7085 154.347 18.2982 155.738 17.4503C157.13 16.6298 157.948 15.2895 158.221 13.4843H164.222C163.622 20.2675 158.876 23.6591 149.928 23.6591C144.963 23.6591 141.335 22.6744 139.016 20.6778C136.697 18.6811 135.524 15.7272 135.524 11.8159V11.7885Z" fill="white"/>
<path d="M192.702 0.328247V5.27888H181.572V23.3036H175.68V5.27888H164.55V0.328247H192.702Z" fill="white"/>
<path d="M200.531 0.328247V23.3036H194.639V0.328247H200.531Z" fill="white"/>
<path d="M216.899 23.6318C211.934 23.6318 208.306 22.6471 205.987 20.6504C203.668 18.6538 202.495 15.6998 202.495 11.7885C202.495 7.87725 203.668 4.95063 205.987 2.98132C208.306 1.01201 211.961 0 216.899 0C226.501 0 231.302 3.93863 231.302 11.7885C231.302 19.6384 226.501 23.6318 216.899 23.6318ZM216.899 18.6811C219.9 18.6811 222.082 18.1341 223.419 17.0127C224.755 15.9186 225.41 14.1681 225.41 11.7885C225.41 9.40894 224.755 7.68579 223.419 6.59173C222.109 5.49767 219.927 4.95063 216.899 4.95063C213.871 4.95063 211.689 5.49767 210.379 6.56438C209.07 7.65844 208.388 9.38159 208.388 11.7612C208.388 14.1408 209.042 15.8913 210.379 16.9853C211.689 18.0794 213.871 18.6538 216.899 18.6538V18.6811Z" fill="white"/>
<path d="M257.082 0.328247H262.974V23.3036H254.954L239.35 6.07208V23.3036H233.458V0.328247H241.45L257.109 17.5871V0.328247H257.082Z" fill="white"/>
<path d="M264.884 15.3989H270.776C270.776 16.6571 271.458 17.5871 272.795 18.1341C274.131 18.6811 276.614 18.9546 280.215 18.9546C283.27 18.9546 285.37 18.7632 286.543 18.4076C287.689 18.0247 288.289 17.3956 288.289 16.4656C288.289 15.9733 288.18 15.563 287.989 15.2895C287.798 15.016 287.362 14.7698 286.653 14.5784C285.971 14.3869 285.098 14.2228 284.061 14.1408C283.024 14.0587 281.524 13.9493 279.533 13.8672C274.404 13.6211 270.803 12.992 268.703 11.98C266.602 10.968 265.566 9.19013 265.566 6.67378C265.566 5.03269 266.138 3.71981 267.257 2.70781C268.375 1.6958 269.93 1.01201 271.867 0.601734C273.804 0.191461 276.286 0 279.287 0C283.788 0 287.225 0.629086 289.599 1.85991C291.972 3.09073 293.172 5.08739 293.172 7.82255H287.28C287.28 6.59173 286.625 5.77118 285.343 5.33356C284.034 4.89593 281.824 4.67712 278.66 4.67712C275.823 4.67712 273.913 4.84123 272.958 5.14209C271.976 5.47031 271.512 6.0447 271.512 6.91995C271.512 7.7952 272.003 8.36958 272.986 8.67045C273.968 8.97131 276.15 9.21748 279.56 9.40894C280.924 9.46364 281.988 9.5457 282.806 9.6004C283.625 9.6551 284.579 9.76451 285.643 9.87392C286.707 9.98332 287.553 10.1201 288.18 10.2568C288.808 10.3936 289.49 10.5851 290.226 10.8039C290.963 11.0227 291.536 11.2962 291.972 11.6244C292.381 11.9526 292.79 12.3082 293.172 12.7458C293.554 13.1835 293.827 13.6758 293.963 14.2502C294.1 14.8245 294.182 15.4536 294.182 16.1921C294.182 17.6691 293.854 18.9273 293.172 19.9119C292.518 20.8966 291.508 21.6624 290.172 22.1821C288.835 22.7018 287.362 23.0574 285.752 23.2762C284.143 23.4676 282.206 23.5771 279.915 23.5771C277.95 23.5771 276.232 23.495 274.731 23.3582C273.231 23.2215 271.867 22.948 270.585 22.5924C269.303 22.2095 268.266 21.7171 267.448 21.1154C266.629 20.5137 266.002 19.7205 265.566 18.7632C265.129 17.8059 264.884 16.6571 264.884 15.3442V15.3989Z" fill="white"/>
<path d="M139.807 36.0767H141.144L139.234 40.9179H137.516L136.097 37.2802L134.679 40.9179H132.96L131.051 36.0767H132.387L133.806 39.8786L135.306 36.0767H136.834L138.361 39.9059L139.78 36.0767H139.807Z" fill="white"/>
<path d="M145.208 40.9453L144.69 39.9059H141.799L141.28 40.9453H139.916L142.399 36.1041H144.09L146.6 40.9453H145.236H145.208ZM142.262 38.976H144.226L143.244 37.0067L142.262 38.976Z" fill="white"/>
<path d="M151.455 36.0767V37.1161H149.109V40.9179H147.855V37.1161H145.509V36.0767H151.455Z" fill="white"/>
<path d="M151.565 38.511C151.565 37.6904 151.81 37.0614 152.301 36.6511C152.792 36.2408 153.556 36.022 154.593 36.022C156.475 36.022 157.484 36.7331 157.621 38.1554H156.366C156.311 37.7725 156.148 37.499 155.848 37.3349C155.547 37.1708 155.138 37.0887 154.62 37.0887C153.993 37.0887 153.529 37.1981 153.256 37.4443C152.983 37.6631 152.82 38.046 152.82 38.5383C152.82 39.0307 152.956 39.4136 153.256 39.6324C153.529 39.8512 153.993 39.988 154.62 39.988C155.138 39.988 155.547 39.9059 155.848 39.7145C156.148 39.523 156.311 39.2495 156.366 38.8666H157.621C157.484 40.2888 156.502 41.0273 154.593 41.0273C153.556 41.0273 152.792 40.8085 152.301 40.3983C151.81 39.988 151.565 39.3589 151.565 38.5383V38.511Z" fill="white"/>
<path d="M163.24 36.0767H164.495V40.9179H163.24V39.0307H159.312V40.9179H158.057V36.0767H159.312V37.964H163.24V36.0767Z" fill="white"/>
<path d="M170.169 37.0887H166.296V38.0734H170.169V38.976H166.296V39.9606H170.169V40.9453H165.068V36.1041H170.169V37.0887Z" fill="white"/>
<path d="M170.551 39.2768H171.806C171.806 39.5504 171.943 39.7418 172.243 39.8512C172.515 39.9606 173.034 40.0153 173.798 40.0153C174.452 40.0153 174.889 39.988 175.134 39.9059C175.38 39.8239 175.489 39.6871 175.489 39.4957C175.489 39.3862 175.489 39.3042 175.434 39.2495C175.407 39.1948 175.298 39.1401 175.161 39.1127C175.025 39.0854 174.834 39.0307 174.616 39.0307C174.398 39.0307 174.07 39.0033 173.661 38.976C172.57 38.9213 171.833 38.7845 171.37 38.5657C170.933 38.3469 170.715 37.9913 170.715 37.4443C170.715 37.0887 170.824 36.8152 171.07 36.5964C171.315 36.3776 171.642 36.2408 172.052 36.1588C172.461 36.0767 172.979 36.022 173.607 36.022C174.561 36.022 175.271 36.1588 175.789 36.4049C176.28 36.6784 176.553 37.0887 176.553 37.6631H175.298C175.298 37.4169 175.161 37.2255 174.889 37.1434C174.616 37.0614 174.152 37.0067 173.47 37.0067C172.87 37.0067 172.461 37.034 172.27 37.1161C172.079 37.1981 171.97 37.3075 171.97 37.499C171.97 37.6904 172.079 37.7999 172.27 37.8819C172.488 37.9366 172.952 37.9913 173.661 38.046C173.961 38.046 174.179 38.046 174.343 38.1007C174.507 38.1007 174.725 38.1281 174.943 38.1554C175.161 38.1554 175.352 38.2101 175.489 38.2375C175.625 38.2648 175.762 38.3195 175.925 38.3469C176.089 38.4016 176.198 38.4563 176.28 38.511C176.362 38.5657 176.444 38.6478 176.525 38.7572C176.607 38.8392 176.662 38.9486 176.689 39.0854C176.716 39.2221 176.744 39.3315 176.744 39.4957C176.744 39.7965 176.662 40.07 176.525 40.2888C176.389 40.5077 176.171 40.6718 175.898 40.7812C175.625 40.8906 175.298 40.9726 174.971 41C174.643 41.0273 174.207 41.0547 173.743 41.0547C173.334 41.0547 172.952 41.0547 172.652 41C172.352 40.9726 172.052 40.9179 171.779 40.8359C171.506 40.7538 171.288 40.6444 171.124 40.535C170.96 40.3983 170.824 40.2341 170.715 40.0427C170.606 39.8512 170.579 39.6051 170.579 39.3315L170.551 39.2768Z" fill="white"/>
<path d="M195.676 36.0767V38.4836C195.676 39.3315 195.43 39.9606 194.966 40.3709C194.503 40.7812 193.766 41 192.784 41C191.802 41 191.065 40.7812 190.602 40.3982C190.138 39.988 189.892 39.3589 189.892 38.511H191.147C191.147 38.7024 191.147 38.8939 191.202 39.0307C191.229 39.1674 191.311 39.3315 191.42 39.4956C191.529 39.6597 191.693 39.7692 191.938 39.8512C192.184 39.9333 192.457 39.9606 192.811 39.9606C193.084 39.9606 193.33 39.9333 193.548 39.8786C193.766 39.8239 193.93 39.7418 194.039 39.6597C194.148 39.5777 194.23 39.4409 194.312 39.3315C194.393 39.1948 194.421 39.058 194.448 38.9486C194.448 38.8392 194.448 38.7024 194.448 38.5383V37.1708H192.157V36.1314H195.703L195.676 36.0767Z" fill="white"/>
<path d="M201.295 37.0887H197.421V38.0733H201.295V38.9759H197.421V39.9606H201.295V40.9453H196.194V36.104H201.295V37.0887Z" fill="white"/>
<path d="M210.297 36.0767H211.634L209.725 40.9179H208.006L206.587 37.2802L205.142 40.9179H203.423L201.513 36.0767H202.85L204.296 39.8786L205.796 36.0767H207.324L208.852 39.9059L210.27 36.0767H210.297Z" fill="white"/>
<path d="M217.063 37.0887H213.189V38.0733H217.063V38.9759H213.189V39.9606H217.063V40.9453H211.961V36.104H217.063V37.0887Z" fill="white"/>
<path d="M218.727 39.9059H222.464V40.9453H217.499V36.104H218.754V39.9059H218.727Z" fill="white"/>
<path d="M228.602 37.8819C228.602 38.2648 228.493 38.5931 228.329 38.8939C228.138 39.1674 227.893 39.3862 227.565 39.523L228.466 40.9726H226.992L226.201 39.6871H224.21V40.9726H222.955V36.1314H226.747C227.293 36.1314 227.756 36.2955 228.084 36.6237C228.411 36.952 228.602 37.3896 228.602 37.9093V37.8819ZM224.183 37.1434V38.593H226.392C226.392 38.593 226.583 38.593 226.638 38.593C226.692 38.593 226.774 38.5931 226.883 38.5657C226.992 38.5657 227.074 38.511 227.129 38.4563C227.183 38.4016 227.238 38.3469 227.293 38.2375C227.347 38.1281 227.347 38.0187 227.347 37.8819C227.347 37.7452 227.347 37.6357 227.293 37.5263C227.238 37.4169 227.183 37.3622 227.129 37.3075C227.074 37.2528 226.992 37.2255 226.883 37.1981C226.774 37.1981 226.692 37.1708 226.638 37.1434C226.583 37.1161 226.501 37.1434 226.392 37.1434H224.183Z" fill="white"/>
<path d="M231.084 39.3589L228.356 36.104H229.857L231.712 38.3195L233.567 36.104H235.067L232.339 39.3589V40.9453H231.084V39.3589Z" fill="white"/>
<path d="M252.171 37.1434H248.298V38.3742H251.762V39.4136H248.298V40.9179H247.043V36.0767H252.144V37.1161L252.171 37.1434Z" fill="white"/>
<path d="M253.808 36.0767V40.9179H252.553V36.0767H253.808Z" fill="white"/>
<path d="M259.346 36.0767H260.601V40.9179H258.909L255.608 37.2802V40.9179H254.354V36.0767H256.045L259.346 39.7145V36.0767Z" fill="white"/>
<path d="M266.247 37.0887H262.374V38.0734H266.247V38.976H262.374V39.9606H266.247V40.9453H261.146V36.1041H266.247V37.0887Z" fill="white"/>
<path d="M275.168 40.9453L274.65 39.9059H271.758L271.24 40.9453H269.876L272.358 36.1041H274.049L276.559 40.9453H275.195H275.168ZM272.222 38.976H274.186L273.204 37.0067L272.222 38.976Z" fill="white"/>
<path d="M282.479 37.8819C282.479 38.2648 282.397 38.5931 282.206 38.8939C282.015 39.1674 281.769 39.3862 281.442 39.523L282.342 40.9726H280.869L280.078 39.6871H278.087V40.9726H276.832V36.1314H280.624C281.169 36.1314 281.633 36.2955 281.96 36.6237C282.288 36.952 282.479 37.3896 282.479 37.9093V37.8819ZM278.059 37.1434V38.593H280.269C280.269 38.593 280.46 38.593 280.515 38.593C280.569 38.593 280.651 38.5931 280.76 38.5657C280.869 38.5657 280.951 38.511 281.006 38.4563C281.06 38.4016 281.115 38.3469 281.169 38.2375C281.224 38.1281 281.224 38.0187 281.224 37.8819C281.224 37.7452 281.224 37.6357 281.169 37.5263C281.115 37.4169 281.06 37.3622 281.006 37.3075C280.951 37.2528 280.869 37.2255 280.76 37.1981C280.651 37.1981 280.569 37.1708 280.515 37.1434C280.46 37.1161 280.378 37.1434 280.269 37.1434H278.059Z" fill="white"/>
<path d="M288.671 36.0767V37.1161H286.325V40.9179H285.07V37.1161H282.724V36.0767H288.671Z" fill="white"/>
<path d="M288.835 39.2768H290.09C290.09 39.5504 290.226 39.7418 290.526 39.8512C290.799 39.9606 291.317 40.0153 292.081 40.0153C292.736 40.0153 293.172 39.988 293.418 39.9059C293.663 39.8239 293.773 39.6871 293.773 39.4957C293.773 39.3862 293.773 39.3042 293.718 39.2495C293.691 39.1948 293.582 39.1401 293.445 39.1127C293.309 39.0854 293.118 39.0307 292.9 39.0307C292.681 39.0307 292.354 39.0033 291.945 38.976C290.854 38.9213 290.117 38.7845 289.653 38.5657C289.217 38.3469 288.999 37.9913 288.999 37.4443C288.999 37.0887 289.108 36.8152 289.353 36.5964C289.599 36.3776 289.926 36.2408 290.335 36.1588C290.745 36.0767 291.263 36.022 291.89 36.022C292.845 36.022 293.554 36.1588 294.073 36.4049C294.564 36.6784 294.836 37.0887 294.836 37.6631H293.582C293.582 37.4169 293.445 37.2255 293.172 37.1434C292.9 37.0614 292.436 37.0067 291.754 37.0067C291.154 37.0067 290.745 37.034 290.554 37.1161C290.363 37.1981 290.254 37.3075 290.254 37.499C290.254 37.6904 290.363 37.7999 290.554 37.8819C290.772 37.9366 291.236 37.9913 291.945 38.046C292.245 38.046 292.463 38.046 292.627 38.1007C292.79 38.1007 293.009 38.1281 293.227 38.1554C293.445 38.1554 293.636 38.2101 293.773 38.2375C293.909 38.2648 294.045 38.3195 294.209 38.3469C294.373 38.4016 294.482 38.4563 294.564 38.511C294.646 38.5657 294.727 38.6478 294.809 38.7572C294.891 38.8392 294.946 38.9486 294.973 39.0854C295 39.2221 295.027 39.3315 295.027 39.4957C295.027 39.7965 294.946 40.07 294.809 40.2888C294.673 40.5077 294.455 40.6718 294.182 40.7812C293.909 40.8906 293.582 40.9726 293.254 41C292.927 41.0273 292.49 41.0547 292.027 41.0547C291.617 41.0547 291.236 41.0547 290.935 41C290.635 40.9726 290.335 40.9179 290.063 40.8359C289.79 40.7538 289.572 40.6444 289.408 40.535C289.244 40.3983 289.108 40.2341 288.999 40.0427C288.89 39.8512 288.862 39.6051 288.862 39.3315L288.835 39.2768Z" fill="white"/>
<path d="M183.154 40.5076C183.908 40.5076 184.518 39.8954 184.518 39.1401C184.518 38.3848 183.908 37.7725 183.154 37.7725C182.401 37.7725 181.79 38.3848 181.79 39.1401C181.79 39.8954 182.401 40.5076 183.154 40.5076Z" fill="white"/>
<path d="M241.723 40.5076C242.477 40.5076 243.087 39.8954 243.087 39.1401C243.087 38.3848 242.477 37.7725 241.723 37.7725C240.97 37.7725 240.359 38.3848 240.359 39.1401C240.359 39.8954 240.97 40.5076 241.723 40.5076Z" fill="white"/>
</g>
<defs>
<clipPath id="clip0_85_332">
<rect width="295" height="41" fill="white"/>
</clipPath>
</defs>
</svg>
