<svg width="159" height="25" viewBox="0 0 159 25" fill="none" xmlns="http://www.w3.org/2000/svg">
<g clip-path="url(#clip0_384_17751)">
<path d="M15.1737 0.178711V2.87396H9.17477V12.6871H5.99889V2.87396H0V0.178711H15.1737Z" fill="#3AAE2A"/>
<path d="M25.9228 0.178711C27.3343 0.178711 28.4812 0.595656 29.3487 1.44444C30.2162 2.27833 30.6573 3.39514 30.6573 4.77999C30.6573 6.16484 30.2162 7.26677 29.3487 8.10066C28.4812 8.93455 27.3343 9.35149 25.9228 9.35149H19.3946V12.6871H16.2188V0.178711H25.9228ZM25.0406 6.64135C25.3053 6.64135 25.5259 6.64135 25.6729 6.64135C25.8199 6.64135 26.0258 6.59668 26.2904 6.53712C26.5551 6.47755 26.7462 6.37332 26.8932 6.25419C27.0403 6.13506 27.1726 5.94148 27.2902 5.68834C27.4079 5.43519 27.4667 5.13737 27.4667 4.77999C27.4667 4.42261 27.4079 4.1099 27.2902 3.85676C27.1726 3.60361 27.0403 3.41003 26.8932 3.2909C26.7462 3.17178 26.5404 3.06754 26.2904 3.00798C26.0405 2.94841 25.8199 2.90374 25.6729 2.90374C25.5259 2.90374 25.3053 2.90374 25.0406 2.90374H19.3946V6.67113H25.0406V6.64135Z" fill="#3AAE2A"/>
<path d="M53.4029 12.6871L52.0797 10.0216H44.684L43.3607 12.6871H39.8613L46.2425 0.178711H50.5358L56.917 12.6871H53.4029ZM45.8749 7.62415H50.9034L48.4039 2.54636L45.8749 7.62415Z" fill="#515151"/>
<path d="M72.0012 6.41799C72.0012 8.60695 71.3836 10.2301 70.1338 11.2873C68.8841 12.3446 66.9286 12.8657 64.2379 12.8657C61.5472 12.8657 59.577 12.3446 58.3419 11.2873C57.1068 10.2449 56.4746 8.60695 56.4746 6.4031V0.178711H59.6505V6.41799C59.6505 6.82004 59.6799 7.17742 59.724 7.49013C59.7828 7.80284 59.9004 8.13044 60.0769 8.48782C60.2533 8.8452 60.518 9.12813 60.8415 9.36638C61.1649 9.60464 61.6207 9.79822 62.1941 9.94713C62.7676 10.096 63.4586 10.1854 64.2379 10.1854C65.0171 10.1854 65.7082 10.1109 66.2816 9.94713C66.855 9.79822 67.3108 9.60464 67.6196 9.36638C67.9431 9.12813 68.193 8.8452 68.3842 8.48782C68.5753 8.13044 68.6929 7.80284 68.7517 7.49013C68.8106 7.17742 68.8253 6.82004 68.8253 6.41799V0.178711H72.0012V6.41799Z" fill="#515151"/>
<path d="M73.0449 6.41797C73.0449 4.30346 73.6772 2.69525 74.9269 1.62311C76.1767 0.550963 78.1469 0 80.8082 0C85.6308 0 88.2039 1.83158 88.5126 5.50963H85.278C85.1309 4.52683 84.6898 3.81207 83.9547 3.36534C83.2195 2.91861 82.1609 2.71014 80.7935 2.71014C79.1908 2.71014 78.0293 3.00796 77.2941 3.60359C76.559 4.19923 76.2061 5.13735 76.2061 6.43286C76.2061 7.72837 76.5737 8.68138 77.2941 9.27702C78.0146 9.87265 79.1908 10.1854 80.7935 10.1854C82.1462 10.1854 83.1901 9.962 83.94 9.50038C84.6898 9.05365 85.1309 8.324 85.278 7.3412H88.5126C88.1892 11.0341 85.6308 12.8806 80.8082 12.8806C78.1322 12.8806 76.1767 12.3445 74.9269 11.2575C73.6772 10.1705 73.0449 8.56226 73.0449 6.43286V6.41797Z" fill="#515151"/>
<path d="M103.865 0.178711V2.87396H97.8662V12.6871H94.6903V2.87396H88.6914V0.178711H103.865Z" fill="#515151"/>
<path d="M108.082 0.178711V12.6871H104.906V0.178711H108.082Z" fill="#515151"/>
<path d="M116.904 12.8657C114.228 12.8657 112.272 12.3296 111.023 11.2426C109.773 10.1556 109.141 8.54736 109.141 6.41797C109.141 4.28857 109.773 2.69525 111.023 1.62311C112.272 0.550963 114.243 0 116.904 0C122.079 0 124.667 2.14429 124.667 6.41797C124.667 10.6917 122.079 12.8657 116.904 12.8657ZM116.904 10.1705C118.521 10.1705 119.697 9.87265 120.418 9.26213C121.138 8.66649 121.491 7.71348 121.491 6.41797C121.491 5.12246 121.138 4.18434 120.418 3.5887C119.712 2.99307 118.536 2.69525 116.904 2.69525C115.272 2.69525 114.096 2.99307 113.39 3.57381C112.684 4.16945 112.317 5.10757 112.317 6.40308C112.317 7.69859 112.669 8.6516 113.39 9.24724C114.096 9.84287 115.272 10.1556 116.904 10.1556V10.1705Z" fill="#515151"/>
<path d="M138.563 0.178711H141.739V12.6871H137.416L129.006 3.3058V12.6871H125.83V0.178711H130.138L138.578 9.57486V0.178711H138.563Z" fill="#515151"/>
<path d="M142.768 8.38357H145.943C145.943 9.06855 146.311 9.57484 147.031 9.87265C147.752 10.1705 149.09 10.3194 151.031 10.3194C152.678 10.3194 153.81 10.2151 154.442 10.0216C155.059 9.81309 155.383 9.4706 155.383 8.96431C155.383 8.69627 155.324 8.47291 155.221 8.324C155.118 8.17509 154.883 8.04108 154.501 7.93684C154.133 7.8326 153.663 7.74326 153.104 7.69859C152.545 7.65391 151.737 7.59435 150.663 7.54968C147.899 7.41566 145.958 7.07317 144.826 6.52221C143.694 5.97124 143.135 5.00334 143.135 3.63337C143.135 2.73992 143.444 2.02516 144.047 1.4742C144.65 0.923235 145.488 0.550963 146.532 0.327599C147.576 0.104236 148.913 0 150.531 0C152.957 0 154.809 0.34249 156.089 1.01258C157.368 1.68267 158.015 2.7697 158.015 4.25879H154.839C154.839 3.5887 154.486 3.14198 153.795 2.90372C153.089 2.66547 151.898 2.54634 150.193 2.54634C148.664 2.54634 147.634 2.63569 147.12 2.79949C146.59 2.97818 146.34 3.29088 146.34 3.76739C146.34 4.2439 146.605 4.55661 147.134 4.72041C147.664 4.88421 148.84 5.01823 150.678 5.12246C151.413 5.15224 151.986 5.19692 152.428 5.2267C152.869 5.25648 153.383 5.31604 153.957 5.37561C154.53 5.43517 154.986 5.50963 155.324 5.58408C155.662 5.65853 156.03 5.76277 156.427 5.8819C156.824 6.00102 157.133 6.14993 157.368 6.32862C157.588 6.50731 157.809 6.7009 158.015 6.93915C158.221 7.1774 158.368 7.44544 158.441 7.75815C158.515 8.07086 158.559 8.41335 158.559 8.8154C158.559 9.61951 158.382 10.3045 158.015 10.8406C157.662 11.3766 157.118 11.7936 156.397 12.0765C155.677 12.3594 154.883 12.553 154.016 12.6721C153.148 12.7764 152.104 12.8359 150.869 12.8359C149.81 12.8359 148.884 12.7913 148.075 12.7168C147.267 12.6424 146.532 12.4934 145.841 12.2999C145.149 12.0914 144.591 11.8234 144.15 11.4958C143.709 11.1682 143.37 10.7363 143.135 10.2151C142.9 9.69396 142.768 9.06855 142.768 8.35378V8.38357Z" fill="#515151"/>
<path d="M8.49084 19.8948H9.78695L7.93536 24.6364H6.26894L4.89347 21.0735L3.51801 24.6364H1.85159L0 19.8948H1.2961L2.67157 23.6184L4.12638 19.8948H5.60766L7.08893 23.6452L8.46439 19.8948H8.49084Z" fill="#515151"/>
<path d="M13.7292 24.663L13.2266 23.645H10.4228L9.92022 24.663H8.59766L11.0047 19.9214H12.6447L15.0782 24.663H13.7556H13.7292ZM10.8725 22.7342H12.7769L11.8247 20.8054L10.8725 22.7342Z" fill="#515151"/>
<path d="M19.7859 19.8948V20.9128H17.5111V24.6364H16.2943V20.9128H14.0195V19.8948H19.7859Z" fill="#515151"/>
<path d="M19.8926 22.2789C19.8926 21.4752 20.1306 20.859 20.6068 20.4572C21.0829 20.0554 21.8235 19.8411 22.8287 19.8411C24.6538 19.8411 25.6325 20.5376 25.7647 21.9306H24.548C24.4951 21.5556 24.3364 21.2877 24.0454 21.1269C23.7545 20.9662 23.3577 20.8858 22.8551 20.8858C22.2467 20.8858 21.7971 20.993 21.5326 21.2341C21.268 21.4484 21.1093 21.8234 21.1093 22.3056C21.1093 22.7878 21.2416 23.1629 21.5326 23.3772C21.7971 23.5915 22.2467 23.7255 22.8551 23.7255C23.3577 23.7255 23.7545 23.6451 24.0454 23.4576C24.3364 23.27 24.4951 23.0022 24.548 22.6271H25.7647C25.6325 24.0201 24.6802 24.7434 22.8287 24.7434C21.8235 24.7434 21.0829 24.5291 20.6068 24.1273C20.1306 23.7255 19.8926 23.1093 19.8926 22.3056V22.2789Z" fill="#515151"/>
<path d="M31.2093 19.8948H32.4261V24.6364H31.2093V22.788H27.4004V24.6364H26.1836V19.8948H27.4004V21.7432H31.2093V19.8948Z" fill="#515151"/>
<path d="M37.9308 20.8858H34.1747V21.8502H37.9308V22.7342H34.1747V23.6986H37.9308V24.663H32.9844V19.9214H37.9308V20.8858Z" fill="#515151"/>
<path d="M38.3027 23.0289H39.5195C39.5195 23.2968 39.6517 23.4844 39.9427 23.5915C40.2072 23.6987 40.7098 23.7522 41.4504 23.7522C42.0853 23.7522 42.5085 23.7255 42.7465 23.6451C42.9846 23.5647 43.0904 23.4308 43.0904 23.2433C43.0904 23.1361 43.0904 23.0557 43.0375 23.0022C43.011 22.9486 42.9052 22.895 42.773 22.8682C42.6407 22.8414 42.4556 22.7878 42.244 22.7878C42.0324 22.7878 41.7149 22.7611 41.3182 22.7343C40.2601 22.6807 39.5459 22.5467 39.0963 22.3324C38.673 22.1181 38.4614 21.7699 38.4614 21.2341C38.4614 20.8858 38.5672 20.6179 38.8053 20.4036C39.0434 20.1893 39.3608 20.0554 39.7575 19.975C40.1543 19.8946 40.6569 19.8411 41.2653 19.8411C42.1911 19.8411 42.8788 19.975 43.3814 20.2161C43.8575 20.484 44.122 20.8858 44.122 21.4484H42.9053C42.9053 21.2073 42.773 21.0198 42.5085 20.9394C42.244 20.859 41.7943 20.8055 41.133 20.8055C40.5511 20.8055 40.1543 20.8323 39.9692 20.9126C39.784 20.993 39.6782 21.1001 39.6782 21.2877C39.6782 21.4752 39.784 21.5823 39.9692 21.6627C40.1808 21.7163 40.6304 21.7699 41.3182 21.8234C41.6091 21.8234 41.8207 21.8234 41.9795 21.877C42.1382 21.877 42.3498 21.9038 42.5614 21.9306C42.773 21.9306 42.9582 21.9842 43.0904 22.011C43.2227 22.0378 43.3549 22.0913 43.5136 22.1181C43.6723 22.1717 43.7781 22.2253 43.8575 22.2789C43.9369 22.3324 44.0162 22.4128 44.0955 22.52C44.1749 22.6003 44.2278 22.7075 44.2542 22.8414C44.2807 22.9754 44.3072 23.0825 44.3072 23.2433C44.3072 23.5379 44.2278 23.8058 44.0955 24.0201C43.9633 24.2344 43.7517 24.3952 43.4872 24.5023C43.2227 24.6095 42.9052 24.6899 42.5878 24.7166C42.2704 24.7434 41.8472 24.7702 41.3975 24.7702C41.0008 24.7702 40.6304 24.7702 40.3395 24.7166C40.0485 24.6899 39.7576 24.6363 39.493 24.5559C39.2285 24.4755 39.0169 24.3684 38.8582 24.2612C38.6995 24.1273 38.5673 23.9666 38.4614 23.779C38.3556 23.5915 38.3292 23.3504 38.3292 23.0825L38.3027 23.0289Z" fill="#515151"/>
<path d="M62.6604 19.8945V22.252C62.6604 23.0824 62.4223 23.6986 61.9727 24.1004C61.523 24.5022 60.8088 24.7165 59.8566 24.7165C58.9043 24.7165 58.1901 24.5022 57.7405 24.1272C57.2908 23.7253 57.0527 23.1092 57.0527 22.2787H58.2695C58.2695 22.4663 58.2695 22.6538 58.3224 22.7877C58.3488 22.9217 58.4282 23.0824 58.534 23.2431C58.6398 23.4039 58.7985 23.511 59.0366 23.5914C59.2746 23.6718 59.5391 23.6986 59.883 23.6986C60.1475 23.6986 60.3856 23.6718 60.5972 23.6182C60.8088 23.5646 60.9675 23.4842 61.0733 23.4039C61.1791 23.3235 61.2585 23.1896 61.3378 23.0824C61.4172 22.9485 61.4436 22.8145 61.4701 22.7074C61.4701 22.6002 61.4701 22.4663 61.4701 22.3055V20.9661H59.2482V19.9481H62.6868L62.6604 19.8945Z" fill="#515151"/>
<path d="M68.1124 20.8858H64.3563V21.8502H68.1124V22.7342H64.3563V23.6986H68.1124V24.663H63.166V19.9214H68.1124V20.8858Z" fill="#515151"/>
<path d="M76.8376 19.8945H78.1337L76.2821 24.6362H74.6157L73.2402 21.0732L71.8383 24.6362H70.1719L68.3203 19.8945H69.6164L71.0183 23.6182L72.4732 19.8945H73.9544L75.4357 23.645L76.8112 19.8945H76.8376Z" fill="#515151"/>
<path d="M83.3995 20.8858H79.6434V21.8502H83.3995V22.7342H79.6434V23.6986H83.3995V24.663H78.4531V19.9214H83.3995V20.8858Z" fill="#515151"/>
<path d="M85.0126 23.645H88.6364V24.663H83.8223V19.9214H85.039V23.645H85.0126Z" fill="#515151"/>
<path d="M94.5887 21.6627C94.5887 22.0378 94.4829 22.3592 94.3242 22.6539C94.139 22.9218 93.9009 23.1361 93.5835 23.2701L94.4564 24.6899H93.0281L92.261 23.4308H90.33V24.6899H89.1133V19.9482H92.79C93.319 19.9482 93.7687 20.109 94.0861 20.4304C94.4035 20.7519 94.5887 21.1805 94.5887 21.6895V21.6627ZM90.3036 20.9394V22.3592H92.4461C92.4461 22.3592 92.6313 22.3592 92.6842 22.3592C92.7371 22.3592 92.8164 22.3592 92.9222 22.3325C93.028 22.3325 93.1074 22.2789 93.1603 22.2253C93.2132 22.1717 93.2661 22.1181 93.319 22.011C93.3719 21.9038 93.3719 21.7967 93.3719 21.6627C93.3719 21.5288 93.3719 21.4216 93.319 21.3145C93.2661 21.2073 93.2132 21.1537 93.1603 21.1002C93.1074 21.0466 93.028 21.0198 92.9222 20.993C92.8164 20.993 92.7371 20.9662 92.6842 20.9394C92.6313 20.9126 92.5519 20.9394 92.4461 20.9394H90.3036Z" fill="#515151"/>
<path d="M96.9947 23.1093L94.3496 19.9214H95.8044L97.6031 22.0913L99.4018 19.9214H100.857L98.2115 23.1093V24.663H96.9947V23.1093Z" fill="#515151"/>
<path d="M117.444 20.9393H113.687V22.1448H117.047V23.1628H113.687V24.6362H112.471V19.8945H117.417V20.9125L117.444 20.9393Z" fill="#515151"/>
<path d="M119.033 19.8945V24.6362H117.816V19.8945H119.033Z" fill="#515151"/>
<path d="M124.401 19.8945H125.618V24.6362H123.978L120.777 21.0732V24.6362H119.561V19.8945H121.201L124.401 23.4575V19.8945Z" fill="#515151"/>
<path d="M131.095 20.8858H127.339V21.8502H131.095V22.7342H127.339V23.6986H131.095V24.663H126.148V19.9214H131.095V20.8858Z" fill="#515151"/>
<path d="M139.741 24.663L139.238 23.645H136.435L135.932 24.663H134.609L137.016 19.9214H138.656L141.09 24.663H139.767H139.741ZM136.884 22.7342H138.789L137.836 20.8054L136.884 22.7342Z" fill="#515151"/>
<path d="M146.831 21.6627C146.831 22.0378 146.752 22.3592 146.566 22.6539C146.381 22.9218 146.143 23.1361 145.826 23.2701L146.699 24.6899H145.27L144.503 23.4308H142.572V24.6899H141.355V19.9482H145.032C145.561 19.9482 146.011 20.109 146.328 20.4304C146.646 20.7519 146.831 21.1805 146.831 21.6895V21.6627ZM142.546 20.9394V22.3592H144.688C144.688 22.3592 144.873 22.3592 144.926 22.3592C144.979 22.3592 145.059 22.3592 145.164 22.3325C145.27 22.3325 145.35 22.2789 145.403 22.2253C145.455 22.1717 145.508 22.1181 145.561 22.011C145.614 21.9038 145.614 21.7967 145.614 21.6627C145.614 21.5288 145.614 21.4216 145.561 21.3145C145.508 21.2073 145.455 21.1537 145.403 21.1002C145.35 21.0466 145.27 21.0198 145.164 20.993C145.059 20.993 144.979 20.9662 144.926 20.9394C144.873 20.9126 144.794 20.9394 144.688 20.9394H142.546Z" fill="#515151"/>
<path d="M152.833 19.8945V20.9125H150.558V24.6362H149.341V20.9125H147.066V19.8945H152.833Z" fill="#515151"/>
<path d="M152.996 23.0289H154.213C154.213 23.2968 154.345 23.4844 154.636 23.5915C154.901 23.6987 155.403 23.7522 156.144 23.7522C156.779 23.7522 157.202 23.7255 157.44 23.6451C157.678 23.5647 157.784 23.4308 157.784 23.2433C157.784 23.1361 157.784 23.0557 157.731 23.0022C157.704 22.9486 157.599 22.895 157.466 22.8682C157.334 22.8414 157.149 22.7878 156.937 22.7878C156.726 22.7878 156.408 22.7611 156.012 22.7343C154.953 22.6807 154.239 22.5467 153.79 22.3324C153.366 22.1181 153.155 21.7699 153.155 21.2341C153.155 20.8858 153.261 20.6179 153.499 20.4036C153.737 20.1893 154.054 20.0554 154.451 19.975C154.848 19.8946 155.35 19.8411 155.959 19.8411C156.884 19.8411 157.572 19.975 158.075 20.2161C158.551 20.484 158.815 20.8858 158.815 21.4484H157.599C157.599 21.2073 157.466 21.0198 157.202 20.9394C156.937 20.859 156.488 20.8055 155.826 20.8055C155.244 20.8055 154.848 20.8323 154.663 20.9126C154.477 20.993 154.372 21.1001 154.372 21.2877C154.372 21.4752 154.477 21.5823 154.663 21.6627C154.874 21.7163 155.324 21.7699 156.012 21.8234C156.302 21.8234 156.514 21.8234 156.673 21.877C156.832 21.877 157.043 21.9038 157.255 21.9306C157.466 21.9306 157.652 21.9842 157.784 22.011C157.916 22.0378 158.048 22.0913 158.207 22.1181C158.366 22.1717 158.472 22.2253 158.551 22.2789C158.63 22.3324 158.71 22.4128 158.789 22.52C158.868 22.6003 158.921 22.7075 158.948 22.8414C158.974 22.9754 159.001 23.0825 159.001 23.2433C159.001 23.5379 158.921 23.8058 158.789 24.0201C158.657 24.2344 158.445 24.3952 158.181 24.5023C157.916 24.6095 157.599 24.6899 157.281 24.7166C156.964 24.7434 156.541 24.7702 156.091 24.7702C155.694 24.7702 155.324 24.7702 155.033 24.7166C154.742 24.6899 154.451 24.6363 154.186 24.5559C153.922 24.4755 153.71 24.3684 153.552 24.2612C153.393 24.1273 153.261 23.9666 153.155 23.779C153.049 23.5915 153.023 23.3504 153.023 23.0825L152.996 23.0289Z" fill="#515151"/>
<path d="M50.5218 24.2346C51.2522 24.2346 51.8443 23.6349 51.8443 22.8951C51.8443 22.1554 51.2522 21.5557 50.5218 21.5557C49.7913 21.5557 49.1992 22.1554 49.1992 22.8951C49.1992 23.6349 49.7913 24.2346 50.5218 24.2346Z" fill="#515151"/>
<path d="M107.313 24.2346C108.043 24.2346 108.635 23.6349 108.635 22.8951C108.635 22.1554 108.043 21.5557 107.313 21.5557C106.582 21.5557 105.99 22.1554 105.99 22.8951C105.99 23.6349 106.582 24.2346 107.313 24.2346Z" fill="#515151"/>
</g>
<defs>
<clipPath id="clip0_384_17751">
<rect width="159" height="25" fill="white"/>
</clipPath>
</defs>
</svg>
